<svg width="304" height="214" xmlns="http://www.w3.org/2000/svg" xmlns:svg="http://www.w3.org/2000/svg">
 <!-- Created with SVG-edit - http://svg-edit.googlecode.com/ -->
 <g>
  <title>Layer 1</title>
  <path stroke="#0f75a8" fill-opacity="0" id="svg_1" d="m12,10.02844l0,34.08627l54.44397,0l26.60886,97.37597l149.82666,0l49.12051,-116.86049l-223.50525,0l0,-14.60175l-56.49475,0zm50.06897,172.03625c0,12.09468 -9.89502,21.90686 -22.10144,21.90686c-12.20642,0 -22.10571,-9.81218 -22.10571,-21.90686c0,-12.1032 9.89929,-21.91107 22.10571,-21.91107c12.20642,0 22.10144,9.80788 22.10144,21.91107zm139.99991,0c0,12.09468 -9.89499,21.90686 -22.10149,21.90686c-12.20628,0 -22.10133,-9.81218 -22.10133,-21.90686c0,-12.1032 9.89505,-21.91107 22.10133,-21.91107c12.2065,0 22.10149,9.80788 22.10149,21.91107z" stroke-width="5" fill="#000000"/>
 </g>
</svg>