<svg width="386" height="258" xmlns="http://www.w3.org/2000/svg" xmlns:svg="http://www.w3.org/2000/svg">
 <!-- Created with SVG-edit - http://svg-edit.googlecode.com/ -->
 <defs>
  <radialGradient spreadMethod="pad" id="svg_3">
   <stop offset="0" stop-opacity="0.99609" stop-color="#004060"/>
   <stop offset="1" stop-opacity="0.99609" stop-color="#1379ad"/>
  </radialGradient>
 </defs>
 <g>
  <title>Layer 1</title>
  <path stroke="#0f75a8" id="svg_1" d="m256.68289,183.04366c-14.02129,-4.98669 -19.61461,-18.73344 -19.61461,-18.73344s-6.31184,3.09972 -6.31184,-5.62665s6.31184,5.62665 12.62341,-28.13376c0,0 17.49872,-4.37997 14.02158,-40.63386l-4.23343,0c0,0 10.5452,-38.74701 0,-51.88753c-10.50639,-13.10658 -14.70142,-21.86668 -37.86926,-28.13342s-14.70186,-4.9867 -31.52052,-4.34649c-16.81818,0.60664 -30.87808,8.72636 -30.87808,13.10671c0,0 -10.5065,0.64002 -14.70157,4.37994c-4.19522,3.73978 -11.22483,21.22688 -11.22483,25.60682s3.51488,33.79406 7.02961,40.02704l-4.19505,1.24693c-3.5153,36.25389 14.02161,40.63386 14.02161,40.63386c6.31154,33.76041 12.62292,19.37347 12.62292,28.13376s-6.31139,5.62665 -6.31139,5.62665s-5.59373,13.74675 -19.61507,18.73344c-14.0216,4.98654 -91.84029,31.87358 -98.18947,37.50047c-6.31147,5.66034 -5.59347,31.87361 -5.59347,31.87361l333.72258,0c0,0 0.71802,-26.21327 -5.59332,-31.87361c-6.34949,-5.62689 -84.16766,-32.51393 -98.18979,-37.50047zm-154.42683,-1.88683c-1.24695,-1.98779 -1.85204,-3.43677 -1.85204,-3.43677s-5.32854,2.66196 -5.32854,-4.7504s5.32854,4.7504 10.69553,-23.85498c0,0 14.85282,-3.7061 11.86736,-34.43433l-3.55279,0c0,0 1.77652,-6.50259 2.91042,-14.72396c-0.0378,-3.40302 0.07574,-7.00826 0.45361,-10.98389l0.49091,-4.71696c-0.26401,-5.42465 -1.32219,-10.34354 -3.85494,-13.54473c-8.91919,-11.08485 -12.50964,-18.53108 -32.08718,-23.82066c-19.6151,-5.29013 -12.50974,-4.24562 -26.7582,-3.70667c-14.24811,0.53949 -26.15383,7.4127 -26.15383,11.11902c0,0 -8.91904,0.53888 -12.47191,3.70615c-3.36366,2.99867 -8.73026,16.13906 -9.37289,20.82224l0,3.09991c0.56685,7.21025 3.1747,27.05537 5.78256,31.70512l-3.51499,1.0782c-2.98567,30.72778 11.86749,34.43434 11.86749,34.43434c5.36681,28.60544 10.69572,16.40857 10.69572,23.82121s-5.32891,4.78423 -5.32891,4.78423s-4.76217,11.65781 -16.66733,15.86909c-0.75565,0.26987 -1.7008,0.64055 -2.87231,1.01096l0,57.7838l7.14295,0c-0.37779,-14.08366 0.94494,-32.31194 9.22199,-39.65688c4.42162,-3.942 18.85921,-10.37721 78.68733,-31.60403zm276.54015,-100.00117c-0.49133,-4.14426 -1.58725,-7.88401 -3.62799,-10.44486c-8.88196,-11.11866 -12.47211,-18.53108 -32.08722,-23.82066c-19.61517,-5.29013 -12.47229,-4.24562 -26.72076,-3.70667c-14.28619,0.53949 -26.1535,7.4127 -26.1535,11.11902c0,0 -8.91943,0.53888 -12.47217,3.70615c-3.36365,2.99867 -8.80591,16.27342 -9.41113,20.88989l0.41632,0l0.98254,10.07397c0.26422,2.56087 0.26422,4.81828 0.33957,7.10944c1.13443,7.37875 2.60828,14.92586 4.08194,17.55398l-3.51437,1.0782c-2.98541,30.72778 11.86707,34.43434 11.86707,34.43434c5.36719,28.60544 10.69571,16.40857 10.69571,23.82121s-5.36639,4.78423 -5.36639,4.78423s-0.64331,1.54997 -2.0033,3.70612c59.07266,20.99092 73.39658,27.39267 77.74252,31.30086c8.31494,7.37883 9.59985,25.57321 9.2598,39.69063l5.93393,0l0,-58.59253c-0.18954,-0.06726 -0.45389,-0.16817 -0.64246,-0.23598c-11.86786,-4.21129 -16.62955,-15.86909 -16.62955,-15.86909s-5.36682,2.62813 -5.36682,-4.78423s5.36682,4.78423 10.6958,-23.82121c0,0 9.97778,-2.52696 11.94302,-20.35069l0,-13.54445c0,-0.20238 0,-0.33716 -0.03824,-0.5392l-3.59015,0c0,0 2.68341,-9.83849 3.62839,-20.55257l0,-13.00587l0.03745,0z" stroke-linecap="null" stroke-linejoin="null" stroke-dasharray="null" stroke-width="0" fill="url(#svg_3)"/>
 </g>
</svg>