<svg width="1440" height="900" xmlns="http://www.w3.org/2000/svg" xmlns:svg="http://www.w3.org/2000/svg" xmlns:xlink="http://www.w3.org/1999/xlink">
 <defs>
  <linearGradient id="linearGradient3155">
   <stop stop-color="#3c6eb4" id="stop3157" offset="0"/>
   <stop stop-color="#294172" id="stop3159" offset="1"/>
  </linearGradient>
  <radialGradient gradientUnits="userSpaceOnUse" gradientTransform="matrix(1,0,0,0.6289425,0,168.03604)" r="731.5" fy="452.85716" fx="721.42857" cy="452.85716" cx="721.42857" id="radialGradient3161" xlink:href="#linearGradient3155"/>
  <linearGradient id="linearGradient21591">
   <stop stop-color="#000000" offset="0" id="stop21593"/>
   <stop stop-color="#000000" stop-opacity="0" offset="1" id="stop21595"/>
  </linearGradient>
  <linearGradient y2="Infinity" x2="Infinity" y1="Infinity" x1="Infinity" id="linearGradient4317" xlink:href="#linearGradient21591"/>
 </defs>
 <metadata id="metadata7">image/svg+xml</metadata>
 <g>
  <title>Layer 1</title>
  <g id="layer1">
   <rect fill="url(#radialGradient3161)" fill-rule="nonzero" stroke="#000000" stroke-width="3" stroke-linecap="round" stroke-linejoin="round" stroke-miterlimit="4" stroke-dashoffset="0" y="-5.71429" x="-8.57143" height="917.14288" width="1460" id="rect2383"/>
   <rect fill="#294172" fill-rule="nonzero" stroke-width="3" stroke-linecap="round" stroke-linejoin="round" stroke-miterlimit="4" stroke-dashoffset="0" ry="28.57143" y="454.6846" x="781.7085" height="95.71429" width="95.71429" id="rect3163"/>
   <g fill="#0a57a4" stroke="url(#linearGradient4317)" stroke-width="1.20394" id="g25802" transform="matrix(1.2733535,0,0,1.2733535,1542.3796,257.12424) "/>
   <rect fill="#294172" fill-rule="nonzero" stroke-width="3" stroke-linecap="round" stroke-linejoin="round" stroke-miterlimit="4" stroke-dashoffset="0" id="rect3895" width="95.71429" height="95.71429" x="781.7085" y="563.78107" ry="28.57143"/>
   <rect fill="#294172" fill-rule="nonzero" stroke-width="3" stroke-linecap="round" stroke-linejoin="round" stroke-miterlimit="4" stroke-dashoffset="0" id="rect3897" width="95.71429" height="95.71429" x="674.63232" y="454.6846" ry="28.57143"/>
   <rect fill="#294172" fill-rule="nonzero" stroke-width="3" stroke-linecap="round" stroke-linejoin="round" stroke-miterlimit="4" stroke-dashoffset="0" ry="28.57143" y="563.78107" x="674.63232" height="95.71429" width="95.71429" id="rect3899"/>
   <rect fill="#294172" fill-rule="nonzero" stroke-width="3" stroke-linecap="round" stroke-linejoin="round" stroke-miterlimit="4" stroke-dashoffset="0" id="rect3901" width="95.71429" height="95.71429" x="565.53589" y="454.6846" ry="28.57143"/>
   <rect fill="#294172" fill-rule="nonzero" stroke-width="3" stroke-linecap="round" stroke-linejoin="round" stroke-miterlimit="4" stroke-dashoffset="0" ry="28.57143" y="563.78107" x="565.53589" height="95.71429" width="95.71429" id="rect3903"/>
   <path fill="#294172" stroke-width="0.8228" id="path4178" d="m552.53015,502.85941c0,-25.85593 -20.96002,-46.81662 -46.81592,-46.81662c-25.8439,0 -46.79559,20.94345 -46.8143,46.7836l-0.0015,-0.0015l0,36.22827l0.0015,0.00153c0.01422,5.86707 4.77222,10.61682 10.64301,10.61682c0.01651,0 0.03299,-0.00146 0.05029,-0.00146l0.00302,0.00146l36.13599,0l0,0c25.84851,-0.0105 46.79791,-20.96368 46.79791,-46.8121z"/>
   <rect fill="#294172" fill-rule="nonzero" stroke-width="3" stroke-linecap="round" stroke-linejoin="round" stroke-miterlimit="4" stroke-dashoffset="0" id="rect3907" width="95.71429" height="95.71429" x="458.45969" y="563.78107" ry="28.57143"/>
   <rect fill="#294172" fill-rule="nonzero" stroke-width="3" stroke-linecap="round" stroke-linejoin="round" stroke-miterlimit="4" stroke-dashoffset="0" id="rect3909" width="95.71429" height="95.71429" x="781.7085" y="668.83698" ry="28.57143"/>
   <rect fill="#294172" fill-rule="nonzero" stroke-width="3" stroke-linecap="round" stroke-linejoin="round" stroke-miterlimit="4" stroke-dashoffset="0" ry="28.57143" y="777.93341" x="781.7085" height="95.71429" width="95.71429" id="rect3911"/>
   <path fill="#3c6eb4" stroke-width="0.8228" opacity="0.35772" id="path4176" d="m768.24445,715.71655c0,-25.85596 -20.96002,-46.81665 -46.81592,-46.81665c-25.84393,0 -46.79559,20.94348 -46.81433,46.78363l-0.00146,-0.00146l0,36.22827l0.00146,0.00146c0.01422,5.86707 4.77222,10.61682 10.64301,10.61682c0.01654,0 0.03302,-0.00146 0.05029,-0.00146l0.00305,0.00146l36.13599,0l0,0c25.84851,-0.0105 46.79791,-20.96368 46.79791,-46.81207z"/>
   <rect fill="#294172" fill-rule="nonzero" stroke-width="3" stroke-linecap="round" stroke-linejoin="round" stroke-miterlimit="4" stroke-dashoffset="0" id="rect3915" width="95.71429" height="95.71429" x="674.63232" y="777.93341" ry="28.57143"/>
   <rect fill="#294172" fill-rule="nonzero" stroke-width="3" stroke-linecap="round" stroke-linejoin="round" stroke-miterlimit="4" stroke-dashoffset="0" ry="28.57143" y="668.83698" x="565.53589" height="95.71429" width="95.71429" id="rect3917"/>
   <rect fill="#294172" fill-rule="nonzero" stroke-width="3" stroke-linecap="round" stroke-linejoin="round" stroke-miterlimit="4" stroke-dashoffset="0" id="rect3919" width="95.71429" height="95.71429" x="565.53589" y="777.93341" ry="28.57143"/>
   <rect fill="#294172" fill-rule="nonzero" stroke-width="3" stroke-linecap="round" stroke-linejoin="round" stroke-miterlimit="4" stroke-dashoffset="0" id="rect3921" width="95.71429" height="95.71429" x="458.45969" y="668.83698" ry="28.57143"/>
   <rect fill="#294172" fill-rule="nonzero" stroke-width="3" stroke-linecap="round" stroke-linejoin="round" stroke-miterlimit="4" stroke-dashoffset="0" ry="28.57143" y="777.93341" x="458.45969" height="95.71429" width="95.71429" id="rect3923"/>
   <rect fill="#294172" fill-rule="nonzero" stroke-width="3" stroke-linecap="round" stroke-linejoin="round" stroke-miterlimit="4" stroke-dashoffset="0" id="rect3925" width="95.71429" height="95.71429" x="781.7085" y="24.35962" ry="28.57143"/>
   <path fill="#294172" stroke-width="0.8228" id="path4186" d="m878.24445,181.43083c0,-25.85593 -20.96002,-46.81662 -46.81592,-46.81662c-25.84393,0 -46.79559,20.94345 -46.81433,46.78362l-0.00146,-0.0015l0,36.22827l0.00146,0.00151c0.01422,5.86708 4.77222,10.61682 10.64301,10.61682c0.01654,0 0.03302,-0.00148 0.05029,-0.00148l0.00305,0.00148l36.13599,0l0,0c25.84851,-0.0105 46.79791,-20.96368 46.79791,-46.8121z"/>
   <rect fill="#294172" fill-rule="nonzero" stroke-width="3" stroke-linecap="round" stroke-linejoin="round" stroke-miterlimit="4" stroke-dashoffset="0" ry="28.57143" y="24.35962" x="674.63232" height="95.71429" width="95.71429" id="rect3929"/>
   <rect opacity="0.3252" fill="#3c6eb4" fill-rule="nonzero" stroke-width="3" stroke-linecap="round" stroke-linejoin="round" stroke-miterlimit="4" stroke-dashoffset="0" id="rect3931" width="95.71429" height="95.71429" x="674.63232" y="133.45609" ry="28.57143"/>
   <rect fill="#294172" fill-rule="nonzero" stroke-width="3" stroke-linecap="round" stroke-linejoin="round" stroke-miterlimit="4" stroke-dashoffset="0" ry="28.57143" y="24.35962" x="565.53589" height="95.71429" width="95.71429" id="rect3933"/>
   <rect fill="#294172" fill-rule="nonzero" stroke-width="3" stroke-linecap="round" stroke-linejoin="round" stroke-miterlimit="4" stroke-dashoffset="0" id="rect3935" width="95.71429" height="95.71429" x="565.53589" y="133.45609" ry="28.57143"/>
   <rect fill="#294172" fill-rule="nonzero" stroke-width="3" stroke-linecap="round" stroke-linejoin="round" stroke-miterlimit="4" stroke-dashoffset="0" id="rect3937" width="95.71429" height="95.71429" x="458.45969" y="24.35962" ry="28.57143"/>
   <rect fill="#294172" fill-rule="nonzero" stroke-width="3" stroke-linecap="round" stroke-linejoin="round" stroke-miterlimit="4" stroke-dashoffset="0" ry="28.57143" y="133.45609" x="458.45969" height="95.71429" width="95.71429" id="rect3939"/>
   <rect fill="#294172" fill-rule="nonzero" stroke-width="3" stroke-linecap="round" stroke-linejoin="round" stroke-miterlimit="4" stroke-dashoffset="0" ry="28.57143" y="238.51199" x="781.7085" height="95.71429" width="95.71429" id="rect3941"/>
   <rect fill="#294172" fill-rule="nonzero" stroke-width="3" stroke-linecap="round" stroke-linejoin="round" stroke-miterlimit="4" stroke-dashoffset="0" id="rect3943" width="95.71429" height="95.71429" x="781.7085" y="347.60843" ry="28.57143"/>
   <rect fill="#294172" fill-rule="nonzero" stroke-width="3" stroke-linecap="round" stroke-linejoin="round" stroke-miterlimit="4" stroke-dashoffset="0" id="rect3945" width="95.71429" height="95.71429" x="674.63232" y="238.51199" ry="28.57143"/>
   <rect fill="#294172" fill-rule="nonzero" stroke-width="3" stroke-linecap="round" stroke-linejoin="round" stroke-miterlimit="4" stroke-dashoffset="0" ry="28.57143" y="347.60843" x="674.63232" height="95.71429" width="95.71429" id="rect3947"/>
   <rect fill="#294172" fill-rule="nonzero" stroke-width="3" stroke-linecap="round" stroke-linejoin="round" stroke-miterlimit="4" stroke-dashoffset="0" id="rect3949" width="95.71429" height="95.71429" x="565.53589" y="238.51199" ry="28.57143"/>
   <rect fill="#294172" fill-rule="nonzero" stroke-width="3" stroke-linecap="round" stroke-linejoin="round" stroke-miterlimit="4" stroke-dashoffset="0" ry="28.57143" y="347.60843" x="565.53589" height="95.71429" width="95.71429" id="rect3951"/>
   <rect fill="#294172" fill-rule="nonzero" stroke-width="3" stroke-linecap="round" stroke-linejoin="round" stroke-miterlimit="4" stroke-dashoffset="0" ry="28.57143" y="238.51199" x="458.45969" height="95.71429" width="95.71429" id="rect3953"/>
   <rect fill="#294172" fill-rule="nonzero" stroke-width="3" stroke-linecap="round" stroke-linejoin="round" stroke-miterlimit="4" stroke-dashoffset="0" id="rect3955" width="95.71429" height="95.71429" x="458.45969" y="347.60843" ry="28.57143"/>
   <rect fill="#294172" fill-rule="nonzero" stroke-width="3" stroke-linecap="round" stroke-linejoin="round" stroke-miterlimit="4" stroke-dashoffset="0" id="rect3957" width="95.71429" height="95.71429" x="345.3226" y="454.6846" ry="28.57143"/>
   <rect fill="#294172" fill-rule="nonzero" stroke-width="3" stroke-linecap="round" stroke-linejoin="round" stroke-miterlimit="4" stroke-dashoffset="0" ry="28.57143" y="563.78107" x="345.3226" height="95.71429" width="95.71429" id="rect3959"/>
   <rect fill="#294172" fill-rule="nonzero" stroke-width="3" stroke-linecap="round" stroke-linejoin="round" stroke-miterlimit="4" stroke-dashoffset="0" ry="28.57143" y="454.6846" x="238.24643" height="95.71429" width="95.71429" id="rect3961"/>
   <rect fill="#294172" fill-rule="nonzero" stroke-width="3" stroke-linecap="round" stroke-linejoin="round" stroke-miterlimit="4" stroke-dashoffset="0" id="rect3963" width="95.71429" height="95.71429" x="238.24643" y="563.78107" ry="28.57143"/>
   <rect fill="#294172" fill-rule="nonzero" stroke-width="3" stroke-linecap="round" stroke-linejoin="round" stroke-miterlimit="4" stroke-dashoffset="0" ry="28.57143" y="454.6846" x="129.14996" height="95.71429" width="95.71429" id="rect3965"/>
   <path fill="#3c6eb4" stroke-width="0.8228" opacity="0.35772" id="path4182" d="m223.95871,612.85938c0,-25.8559 -20.96001,-46.81659 -46.8159,-46.81659c-25.8439,0 -46.79559,20.94342 -46.8143,46.78363l-0.0015,-0.00153l0,36.22827l0.0015,0.00153c0.01421,5.86707 4.7722,10.61682 10.64301,10.61682c0.01649,0 0.033,-0.00146 0.05029,-0.00146l0.00301,0.00146l36.136,0l0,0c25.8485,-0.0105 46.7979,-20.96368 46.7979,-46.81213z"/>
   <rect fill="#294172" fill-rule="nonzero" stroke-width="3" stroke-linecap="round" stroke-linejoin="round" stroke-miterlimit="4" stroke-dashoffset="0" id="rect3969" width="95.71429" height="95.71429" x="22.07378" y="454.6846" ry="28.57143"/>
   <rect fill="#294172" fill-rule="nonzero" stroke-width="3" stroke-linecap="round" stroke-linejoin="round" stroke-miterlimit="4" stroke-dashoffset="0" ry="28.57143" y="563.78107" x="22.07378" height="95.71429" width="95.71429" id="rect3971"/>
   <rect opacity="0.3252" fill="#3c6eb4" fill-rule="nonzero" stroke-width="3" stroke-linecap="round" stroke-linejoin="round" stroke-miterlimit="4" stroke-dashoffset="0" ry="28.57143" y="668.83698" x="345.3226" height="95.71429" width="95.71429" id="rect3973"/>
   <rect fill="#294172" fill-rule="nonzero" stroke-width="3" stroke-linecap="round" stroke-linejoin="round" stroke-miterlimit="4" stroke-dashoffset="0" id="rect3975" width="95.71429" height="95.71429" x="345.3226" y="777.93341" ry="28.57143"/>
   <rect fill="#294172" fill-rule="nonzero" stroke-width="3" stroke-linecap="round" stroke-linejoin="round" stroke-miterlimit="4" stroke-dashoffset="0" id="rect3977" width="95.71429" height="95.71429" x="238.24643" y="668.83698" ry="28.57143"/>
   <rect fill="#294172" fill-rule="nonzero" stroke-width="3" stroke-linecap="round" stroke-linejoin="round" stroke-miterlimit="4" stroke-dashoffset="0" ry="28.57143" y="777.93341" x="238.24643" height="95.71429" width="95.71429" id="rect3979"/>
   <rect fill="#294172" fill-rule="nonzero" stroke-width="3" stroke-linecap="round" stroke-linejoin="round" stroke-miterlimit="4" stroke-dashoffset="0" id="rect3981" width="95.71429" height="95.71429" x="129.14996" y="668.83698" ry="28.57143"/>
   <rect fill="#294172" fill-rule="nonzero" stroke-width="3" stroke-linecap="round" stroke-linejoin="round" stroke-miterlimit="4" stroke-dashoffset="0" ry="28.57143" y="777.93341" x="129.14996" height="95.71429" width="95.71429" id="rect3983"/>
   <rect fill="#294172" fill-rule="nonzero" stroke-width="3" stroke-linecap="round" stroke-linejoin="round" stroke-miterlimit="4" stroke-dashoffset="0" ry="28.57143" y="668.83698" x="22.07378" height="95.71429" width="95.71429" id="rect3985"/>
   <rect opacity="0.19106" fill="#3c6eb4" fill-rule="nonzero" stroke-width="3" stroke-linecap="round" stroke-linejoin="round" stroke-miterlimit="4" stroke-dashoffset="0" id="rect3987" width="95.71429" height="95.71429" x="22.07378" y="777.93341" ry="28.57143"/>
   <rect opacity="0.35772" fill="#3c6eb4" fill-rule="nonzero" stroke-width="3" stroke-linecap="round" stroke-linejoin="round" stroke-miterlimit="4" stroke-dashoffset="0" ry="28.57143" y="24.35962" x="345.3226" height="95.71429" width="95.71429" id="rect3989"/>
   <path fill="#294172" stroke-width="0.8228" id="path4180" d="m441.10156,181.43083c0,-25.85593 -20.95999,-46.81662 -46.81589,-46.81662c-25.8439,0 -46.79562,20.94345 -46.8143,46.78362l-0.00153,-0.0015l0,36.22827l0.00153,0.00151c0.01419,5.86708 4.77219,10.61682 10.64297,10.61682c0.01651,0 0.03302,-0.00148 0.05032,-0.00148l0.00299,0.00148l36.13599,0l0,0c25.84851,-0.0105 46.79791,-20.96368 46.79791,-46.8121z"/>
   <rect fill="#294172" fill-rule="nonzero" stroke-width="3" stroke-linecap="round" stroke-linejoin="round" stroke-miterlimit="4" stroke-dashoffset="0" id="rect3993" width="95.71429" height="95.71429" x="238.24643" y="24.35962" ry="28.57143"/>
   <rect fill="#294172" fill-rule="nonzero" stroke-width="3" stroke-linecap="round" stroke-linejoin="round" stroke-miterlimit="4" stroke-dashoffset="0" ry="28.57143" y="133.45609" x="238.24643" height="95.71429" width="95.71429" id="rect3995"/>
   <rect fill="#294172" fill-rule="nonzero" stroke-width="3" stroke-linecap="round" stroke-linejoin="round" stroke-miterlimit="4" stroke-dashoffset="0" id="rect3997" width="95.71429" height="95.71429" x="129.14996" y="24.35962" ry="28.57143"/>
   <rect fill="#294172" fill-rule="nonzero" stroke-width="3" stroke-linecap="round" stroke-linejoin="round" stroke-miterlimit="4" stroke-dashoffset="0" ry="28.57143" y="133.45609" x="129.14996" height="95.71429" width="95.71429" id="rect3999"/>
   <rect fill="#294172" fill-rule="nonzero" stroke-width="3" stroke-linecap="round" stroke-linejoin="round" stroke-miterlimit="4" stroke-dashoffset="0" ry="28.57143" y="24.35962" x="22.07378" height="95.71429" width="95.71429" id="rect4001"/>
   <rect opacity="0.19106" fill="#3c6eb4" fill-rule="nonzero" stroke-width="3" stroke-linecap="round" stroke-linejoin="round" stroke-miterlimit="4" stroke-dashoffset="0" id="rect4003" width="95.71429" height="95.71429" x="22.07378" y="133.45609" ry="28.57143"/>
   <rect fill="#294172" fill-rule="nonzero" stroke-width="3" stroke-linecap="round" stroke-linejoin="round" stroke-miterlimit="4" stroke-dashoffset="0" id="rect4005" width="95.71429" height="95.71429" x="345.3226" y="238.51199" ry="28.57143"/>
   <rect opacity="0.35772" fill="#3c6eb4" fill-rule="nonzero" stroke-width="3" stroke-linecap="round" stroke-linejoin="round" stroke-miterlimit="4" stroke-dashoffset="0" ry="28.57143" y="347.60843" x="345.3226" height="95.71429" width="95.71429" id="rect4007"/>
   <rect fill="#294172" fill-rule="nonzero" stroke-width="3" stroke-linecap="round" stroke-linejoin="round" stroke-miterlimit="4" stroke-dashoffset="0" ry="28.57143" y="238.51199" x="238.24643" height="95.71429" width="95.71429" id="rect4009"/>
   <rect fill="#294172" fill-rule="nonzero" stroke-width="3" stroke-linecap="round" stroke-linejoin="round" stroke-miterlimit="4" stroke-dashoffset="0" id="rect4011" width="95.71429" height="95.71429" x="238.24643" y="347.60843" ry="28.57143"/>
   <rect fill="#294172" fill-rule="nonzero" stroke-width="3" stroke-linecap="round" stroke-linejoin="round" stroke-miterlimit="4" stroke-dashoffset="0" ry="28.57143" y="238.51199" x="129.14996" height="95.71429" width="95.71429" id="rect4013"/>
   <rect fill="#294172" fill-rule="nonzero" stroke-width="3" stroke-linecap="round" stroke-linejoin="round" stroke-miterlimit="4" stroke-dashoffset="0" id="rect4015" width="95.71429" height="95.71429" x="129.14996" y="347.60843" ry="28.57143"/>
   <rect fill="#294172" fill-rule="nonzero" stroke-width="3" stroke-linecap="round" stroke-linejoin="round" stroke-miterlimit="4" stroke-dashoffset="0" id="rect4017" width="95.71429" height="95.71429" x="22.07378" y="238.51199" ry="28.57143"/>
   <path fill="#294172" stroke-width="0.8228" id="path4184" d="m116.81585,397.14511c0,-25.85593 -20.96,-46.81662 -46.8159,-46.81662c-25.84389,0 -46.7956,20.94345 -46.8143,46.78363l-0.0015,-0.00153l0,36.2283l0.0015,0.0015c0.0142,5.86707 4.7722,10.61682 10.643,10.61682c0.0165,0 0.033,-0.0015 0.0503,-0.0015l0.003,0.0015l36.136,0l0,0c25.8485,-0.0105 46.7979,-20.96368 46.7979,-46.8121z"/>
   <rect fill="#294172" fill-rule="nonzero" stroke-width="3" stroke-linecap="round" stroke-linejoin="round" stroke-miterlimit="4" stroke-dashoffset="0" id="rect4021" width="95.71429" height="95.71429" x="1102.937" y="454.6846" ry="28.57143"/>
   <rect fill="#294172" fill-rule="nonzero" stroke-width="3" stroke-linecap="round" stroke-linejoin="round" stroke-miterlimit="4" stroke-dashoffset="0" ry="28.57143" y="563.78107" x="1102.937" height="95.71429" width="95.71429" id="rect4023"/>
   <rect opacity="0.35772" fill="#3c6eb4" fill-rule="nonzero" stroke-width="3" stroke-linecap="round" stroke-linejoin="round" stroke-miterlimit="4" stroke-dashoffset="0" ry="28.57143" y="454.6846" x="995.86084" height="95.71429" width="95.71429" id="rect4025"/>
   <path fill="#294172" stroke-width="0.8228" id="path4174" d="m1091.10144,611.43085c0,-25.85596 -20.95996,-46.81665 -46.8158,-46.81665c-25.84393,0 -46.79559,20.94348 -46.81427,46.78363l-0.00153,-0.00153l0,36.22833l0.00153,0.00146c0.01422,5.86707 4.77216,10.61682 10.64294,10.61682c0.01648,0 0.03296,-0.00146 0.05029,-0.00146l0.00299,0.00146l36.13599,0l0,0c25.84851,-0.0105 46.79785,-20.96368 46.79785,-46.81207z"/>
   <rect fill="#294172" fill-rule="nonzero" stroke-width="3" stroke-linecap="round" stroke-linejoin="round" stroke-miterlimit="4" stroke-dashoffset="0" ry="28.57143" y="454.6846" x="886.7644" height="95.71429" width="95.71429" id="rect4029"/>
   <rect fill="#294172" fill-rule="nonzero" stroke-width="3" stroke-linecap="round" stroke-linejoin="round" stroke-miterlimit="4" stroke-dashoffset="0" id="rect4031" width="95.71429" height="95.71429" x="886.7644" y="563.78107" ry="28.57143"/>
   <rect fill="#294172" fill-rule="nonzero" stroke-width="3" stroke-linecap="round" stroke-linejoin="round" stroke-miterlimit="4" stroke-dashoffset="0" ry="28.57143" y="668.83698" x="1102.937" height="95.71429" width="95.71429" id="rect4033"/>
   <rect fill="#294172" fill-rule="nonzero" stroke-width="3" stroke-linecap="round" stroke-linejoin="round" stroke-miterlimit="4" stroke-dashoffset="0" id="rect4035" width="95.71429" height="95.71429" x="1102.937" y="777.93341" ry="28.57143"/>
   <rect opacity="0.35772" fill="#3c6eb4" fill-rule="nonzero" stroke-width="3" stroke-linecap="round" stroke-linejoin="round" stroke-miterlimit="4" stroke-dashoffset="0" id="rect4037" width="95.71429" height="95.71429" x="995.86084" y="668.83698" ry="28.57143"/>
   <rect fill="#294172" fill-rule="nonzero" stroke-width="3" stroke-linecap="round" stroke-linejoin="round" stroke-miterlimit="4" stroke-dashoffset="0" ry="28.57143" y="777.93341" x="995.86084" height="95.71429" width="95.71429" id="rect4039"/>
   <rect fill="#294172" fill-rule="nonzero" stroke-width="3" stroke-linecap="round" stroke-linejoin="round" stroke-miterlimit="4" stroke-dashoffset="0" id="rect4041" width="95.71429" height="95.71429" x="886.7644" y="668.83698" ry="28.57143"/>
   <rect fill="#294172" fill-rule="nonzero" stroke-width="3" stroke-linecap="round" stroke-linejoin="round" stroke-miterlimit="4" stroke-dashoffset="0" ry="28.57143" y="777.93341" x="886.7644" height="95.71429" width="95.71429" id="rect4043"/>
   <rect fill="#294172" fill-rule="nonzero" stroke-width="3" stroke-linecap="round" stroke-linejoin="round" stroke-miterlimit="4" stroke-dashoffset="0" ry="28.57143" y="24.35962" x="1102.937" height="95.71429" width="95.71429" id="rect4045"/>
   <path fill="#294172" stroke-width="0.8228" id="path4309" d="m1197.37964,180.77364c0,-25.85593 -20.96008,-46.81662 -46.81592,-46.81662c-25.84387,0 -46.79565,20.94345 -46.81433,46.78363l-0.00146,-0.00151l0,36.22829l0.00146,0.00151c0.01416,5.86707 4.77222,10.61682 10.64307,10.61682c0.01648,0 0.03296,-0.0015 0.05029,-0.0015l0.00293,0.0015l36.13599,0l0,0c25.84851,-0.0105 46.79797,-20.9637 46.79797,-46.81212z"/>
   <rect fill="#294172" fill-rule="nonzero" stroke-width="3" stroke-linecap="round" stroke-linejoin="round" stroke-miterlimit="4" stroke-dashoffset="0" id="rect4049" width="95.71429" height="95.71429" x="995.86084" y="24.35962" ry="28.57143"/>
   <rect fill="#294172" fill-rule="nonzero" stroke-width="3" stroke-linecap="round" stroke-linejoin="round" stroke-miterlimit="4" stroke-dashoffset="0" ry="28.57143" y="133.45609" x="995.86084" height="95.71429" width="95.71429" id="rect4051"/>
   <rect fill="#294172" fill-rule="nonzero" stroke-width="3" stroke-linecap="round" stroke-linejoin="round" stroke-miterlimit="4" stroke-dashoffset="0" id="rect4053" width="95.71429" height="95.71429" x="886.7644" y="24.35962" ry="28.57143"/>
   <rect opacity="0.35772" fill="#3c6eb4" fill-rule="nonzero" stroke-width="3" stroke-linecap="round" stroke-linejoin="round" stroke-miterlimit="4" stroke-dashoffset="0" ry="28.57143" y="133.45609" x="886.7644" height="95.71429" width="95.71429" id="rect4055"/>
   <rect opacity="0.3252" fill="#3c6eb4" fill-rule="nonzero" stroke-width="3" stroke-linecap="round" stroke-linejoin="round" stroke-miterlimit="4" stroke-dashoffset="0" id="rect4057" width="95.71429" height="95.71429" x="1102.937" y="238.51199" ry="28.57143"/>
   <path fill="#294172" stroke-width="0.8228" id="path4172" d="m1198.24438,397.14511c0,-25.85593 -20.95996,-46.81662 -46.81592,-46.81662c-25.84387,0 -46.79553,20.94345 -46.81421,46.78363l-0.00159,-0.00153l0,36.2283l0.00159,0.0015c0.01416,5.86707 4.77209,10.61682 10.64294,10.61682c0.01648,0 0.03296,-0.0015 0.05029,-0.0015l0.00305,0.0015l36.13599,0l0,0c25.84851,-0.0105 46.79785,-20.96368 46.79785,-46.8121z"/>
   <rect fill="#294172" fill-rule="nonzero" stroke-width="3" stroke-linecap="round" stroke-linejoin="round" stroke-miterlimit="4" stroke-dashoffset="0" ry="28.57143" y="238.51199" x="995.86084" height="95.71429" width="95.71429" id="rect4061"/>
   <rect fill="#294172" fill-rule="nonzero" stroke-width="3" stroke-linecap="round" stroke-linejoin="round" stroke-miterlimit="4" stroke-dashoffset="0" id="rect4063" width="95.71429" height="95.71429" x="995.86084" y="347.60843" ry="28.57143"/>
   <rect fill="#294172" fill-rule="nonzero" stroke-width="3" stroke-linecap="round" stroke-linejoin="round" stroke-miterlimit="4" stroke-dashoffset="0" ry="28.57143" y="238.51199" x="886.7644" height="95.71429" width="95.71429" id="rect4065"/>
   <rect fill="#294172" fill-rule="nonzero" stroke-width="3" stroke-linecap="round" stroke-linejoin="round" stroke-miterlimit="4" stroke-dashoffset="0" id="rect4067" width="95.71429" height="95.71429" x="886.7644" y="347.60843" ry="28.57143"/>
   <rect fill="#294172" fill-rule="nonzero" stroke-width="3" stroke-linecap="round" stroke-linejoin="round" stroke-miterlimit="4" stroke-dashoffset="0" id="rect4073" width="95.71429" height="95.71429" x="1315.0691" y="454.6846" ry="28.57143"/>
   <rect opacity="0.19106" fill="#3c6eb4" fill-rule="nonzero" stroke-width="3" stroke-linecap="round" stroke-linejoin="round" stroke-miterlimit="4" stroke-dashoffset="0" ry="28.57143" y="563.78107" x="1315.0691" height="95.71429" width="95.71429" id="rect4075"/>
   <rect fill="#294172" fill-rule="nonzero" stroke-width="3" stroke-linecap="round" stroke-linejoin="round" stroke-miterlimit="4" stroke-dashoffset="0" id="rect4077" width="95.71429" height="95.71429" x="1205.9727" y="454.6846" ry="28.57143"/>
   <rect fill="#294172" fill-rule="nonzero" stroke-width="3" stroke-linecap="round" stroke-linejoin="round" stroke-miterlimit="4" stroke-dashoffset="0" ry="28.57143" y="563.78107" x="1205.9727" height="95.71429" width="95.71429" id="rect4079"/>
   <rect fill="#294172" fill-rule="nonzero" stroke-width="3" stroke-linecap="round" stroke-linejoin="round" stroke-miterlimit="4" stroke-dashoffset="0" ry="28.57143" y="668.83698" x="1315.0691" height="95.71429" width="95.71429" id="rect4085"/>
   <rect opacity="0.08943" fill="#3c6eb4" fill-rule="nonzero" stroke-width="3" stroke-linecap="round" stroke-linejoin="round" stroke-miterlimit="4" stroke-dashoffset="0" id="rect4087" width="95.71429" height="95.71429" x="1315.0691" y="777.93341" ry="28.57143"/>
   <rect fill="#294172" fill-rule="nonzero" stroke-width="3" stroke-linecap="round" stroke-linejoin="round" stroke-miterlimit="4" stroke-dashoffset="0" ry="28.57143" y="668.83698" x="1205.9727" height="95.71429" width="95.71429" id="rect4089"/>
   <rect fill="#294172" fill-rule="nonzero" stroke-width="3" stroke-linecap="round" stroke-linejoin="round" stroke-miterlimit="4" stroke-dashoffset="0" id="rect4091" width="95.71429" height="95.71429" x="1205.9727" y="777.93341" ry="28.57143"/>
   <rect fill="#294172" fill-rule="nonzero" stroke-width="3" stroke-linecap="round" stroke-linejoin="round" stroke-miterlimit="4" stroke-dashoffset="0" ry="28.57143" y="24.35962" x="1315.0691" height="95.71429" width="95.71429" id="rect4097"/>
   <rect fill="#294172" fill-rule="nonzero" stroke-width="3" stroke-linecap="round" stroke-linejoin="round" stroke-miterlimit="4" stroke-dashoffset="0" id="rect4099" width="95.71429" height="95.71429" x="1315.0691" y="133.45609" ry="28.57143"/>
   <rect opacity="0.19106" fill="#3c6eb4" fill-rule="nonzero" stroke-width="3" stroke-linecap="round" stroke-linejoin="round" stroke-miterlimit="4" stroke-dashoffset="0" ry="28.57143" y="24.35962" x="1205.9727" height="95.71429" width="95.71429" id="rect4101"/>
   <rect fill="#294172" fill-rule="nonzero" stroke-width="3" stroke-linecap="round" stroke-linejoin="round" stroke-miterlimit="4" stroke-dashoffset="0" id="rect4103" width="95.71429" height="95.71429" x="1205.9727" y="133.45609" ry="28.57143"/>
   <rect fill="#294172" fill-rule="nonzero" stroke-width="3" stroke-linecap="round" stroke-linejoin="round" stroke-miterlimit="4" stroke-dashoffset="0" id="rect4109" width="95.71429" height="95.71429" x="1315.0691" y="238.51199" ry="28.57143"/>
   <rect fill="#294172" fill-rule="nonzero" stroke-width="3" stroke-linecap="round" stroke-linejoin="round" stroke-miterlimit="4" stroke-dashoffset="0" ry="28.57143" y="347.60843" x="1315.0691" height="95.71429" width="95.71429" id="rect4111"/>
   <rect fill="#294172" fill-rule="nonzero" stroke-width="3" stroke-linecap="round" stroke-linejoin="round" stroke-miterlimit="4" stroke-dashoffset="0" id="rect4113" width="95.71429" height="95.71429" x="1205.9727" y="238.51199" ry="28.57143"/>
   <rect fill="#294172" fill-rule="nonzero" stroke-width="3" stroke-linecap="round" stroke-linejoin="round" stroke-miterlimit="4" stroke-dashoffset="0" ry="28.57143" y="347.60843" x="1205.9727" height="95.71429" width="95.71429" id="rect4115"/>
  </g>
 </g>
</svg>